#!OML:ASF H:\Punching\Project 1\Capture day 1\Session 1\female.ASF
:FULLY-SPECIFIED
:DEGREES
1742
root 1.2867 14.8477 -2.7873 20.9428 -45.2575 -9.02077
lowerback 0.528021 -0.555902 6.24522
upperback -5.63252 -0.666663 -2.00031
thorax -6.29277 -0.741942 -5.56925
lowerneck 2.0504 16.8473 21.5645
upperneck 14.9715 27.7056 -28.6956
head 12.2131 12.9321 -10.0324
rclavicle -2.80286e-014 3.97569e-014
rhumerus 7.30876 36.8094 -74.1214
rradius 127.78
rwrist -7.31603
rhand -27.8693 8.80554
rfingers 7.12502
rthumb -1.25973 -21.1705
lclavicle -2.80286e-014 3.97569e-014
lhumerus -9.14314 3.77622 57.6491
lradius 143.442
lwrist -0.215216
lhand -29.6973 3.87791
lfingers 7.12502
lthumb -3.0251 33.8362
rfemur -10.8623 6.1141 19.2478
rtibia 28.4407
rfoot -28.4445 -21.9778
rtoes -9.14783
lfemur -49.5464 -2.92297 9.90235
ltibia 40.0852
lfoot -13.2406 33.694
ltoes 41.0451
1743
root 1.28325 14.8638 -2.83501 20.5026 -44.6235 -8.67373
lowerback 0.679589 -0.642898 6.22032
upperback -5.59237 -0.775638 -2.02722
thorax -6.35324 -0.795914 -5.57618
lowerneck 1.93586 16.7887 21.4578
upperneck 15.0376 27.5846 -28.536
head 12.1667 12.8669 -9.97603
rclavicle 6.37105e-014 3.33958e-014
rhumerus 7.17636 36.7935 -74.065
rradius 127.93
rwrist -7.71526
rhand -27.5759 8.44278
rfingers 7.12502
rthumb -0.976332 -21.5347
lclavicle 6.37105e-014 3.33958e-014
lhumerus -9.29839 3.49807 57.9334
lradius 143.298
lwrist -0.343785
lhand -29.5798 3.88168
lfingers 7.12502
lthumb -2.91163 33.8416
rfemur -10.5367 5.97555 19.4085
rtibia 28.2473
rfoot -28.4453 -22.4411
rtoes -8.4697
lfemur -49.9279 -1.5677 8.48722
ltibia 40.4724
lfoot -9.69809 33.296
ltoes 39.5049
1744
root 1.27937 14.8779 -2.87983 20.079 -43.9794 -8.3259
lowerback 0.81019 -0.712107 6.16725
upperback -5.55464 -0.86252 -2.04014
thorax -6.39969 -0.836514 -5.55331
lowerneck 1.78933 16.7214 21.313
upperneck 15.1397 27.4504 -28.3534
head 12.1254 12.7904 -9.90763
rclavicle -4.82053e-014 1.74931e-014
rhumerus 7.08874 36.7996 -73.9625
rradius 128.005
rwrist -7.9974
rhand -27.5414 8.22645
rfingers 7.12502
rthumb -0.942948 -21.7512
lclavicle -4.82053e-014 1.74931e-014
lhumerus -9.40893 3.21175 58.2374
lradius 143.122
lwrist -0.623222
lhand -29.4557 3.87448
lfingers 7.12502
lthumb -2.79178 33.836
rfemur -10.2359 5.86081 19.5536
rtibia 28.0879
rfoot -28.4877 -22.9254
rtoes -7.8015
lfemur -50.3231 -0.260419 7.05219
ltibia 40.8712
lfoot -6.47451 32.6892
ltoes 37.8024
1745
root 1.27508 14.8894 -2.92158 19.6991 -43.3484 -7.998
lowerback 0.908516 -0.752503 6.10072
upperback -5.52725 -0.912633 -2.03951
thorax -6.43233 -0.857562 -5.51079
lowerneck 1.62233 16.6405 21.1299
upperneck 15.2762 27.2972 -28.1484
head 12.0849 12.701 -9.83002
rclavicle -5.69518e-014 -4.6118e-014
rhumerus 7.04301 36.8166 -73.8196
rradius 128.007
rwrist -8.18339
rhand -27.741 8.20979
rfingers 7.12502
rthumb -1.13578 -21.7669
lclavicle -5.69518e-014 -4.6118e-014
lhumerus -9.48313 2.92922 58.5497
lradius 142.922
lwrist -1.01779
lhand -29.3329 3.83859
lfingers 7.12502
lthumb -2.67323 33.8016
rfemur -9.97839 5.80646 19.6938
rtibia 27.971
rfoot -28.5737 -23.4668
rtoes -7.09199
lfemur -50.7294 0.995186 5.63217
ltibia 41.2813
lfoot -3.73384 31.9187
ltoes 36.0324
1746
root 1.27045 14.8983 -2.9597 19.381 -42.7507 -7.70733
lowerback 0.97024 -0.7549 6.03567
upperback -5.51769 -0.913219 -2.02586
thorax -6.45538 -0.853956 -5.45881
lowerneck 1.45354 16.542 20.9184
upperneck 15.4414 27.124 -27.9358
head 12.0444 12.6002 -9.75252
rclavicle 1.01082e-013 1.59028e-015
rhumerus 7.03305 36.8182 -73.6435
rradius 127.982
rwrist -8.37903
rhand -27.9874 8.26935
rfingers 7.12502
rthumb -1.37379 -21.706
lclavicle 1.01082e-013 1.59028e-015
lhumerus -9.53944 2.64554 58.8629
lradius 142.714
lwrist -1.48679
lhand -29.2134 3.8
lfingers 7.12502
lthumb -2.55783 33.7644
rfemur -9.76999 5.81075 19.8366
rtibia 27.8936
rfoot -28.6996 -24.0617
rtoes -6.32559
lfemur -51.1421 2.17548 4.27356
ltibia 41.702
lfoot -1.59753 31.0719
ltoes 34.3483
1747
root 1.26545 14.9049 -2.99327 19.1277 -42.2002 -7.45604
lowerback 0.983624 -0.721955 5.97723
upperback -5.52514 -0.868324 -1.99984
thorax -6.46214 -0.827778 -5.40089
lowerneck 1.29078 16.429 20.6901
upperneck 15.6253 26.9366 -27.7263
head 12.0048 12.4919 -9.67958
rclavicle -3.74709e-014 2.54444e-014
rhumerus 7.0676 36.8149 -73.4434
rradius 127.938
rwrist -8.59152
rhand -28.2368 8.39007
rfingers 7.12502
rthumb -1.61466 -21.5836
lclavicle -3.74709e-014 2.54444e-014
lhumerus -9.59757 2.37942 59.1567
lradius 142.517
lwrist -1.97866
lhand -29.0968 3.7718
lfingers 7.12502
lthumb -2.44521 33.7375
rfemur -9.60366 5.83869 19.976
rtibia 27.8424
rfoot -28.8589 -24.6787
rtoes -5.51743
lfemur -51.5556 3.26677 2.99846
ltibia 42.1294
lfoot -0.0109984 30.2305
ltoes 32.8345
1748
root 1.26025 14.9097 -3.02168 18.9453 -41.7016 -7.24689
lowerback 0.941546 -0.656593 5.93706
upperback -5.55357 -0.781866 -1.96348
thorax -6.45392 -0.781869 -5.34555
lowerneck 1.14174 16.3061 20.451
upperneck 15.8323 26.7433 -27.5174
head 11.9694 12.3807 -9.60951
rclavicle -1.63053e-013 1.11319e-014
rhumerus 7.14825 36.8165 -73.231
rradius 127.868
rwrist -8.80206
rhand -28.4545 8.53929
rfingers 7.12502
rthumb -1.82487 -21.4327
lclavicle -1.63053e-013 1.11319e-014
lhumerus -9.67015 2.1467 59.4106
lradius 142.34
lwrist -2.42745
lhand -28.9765 3.71743
lfingers 7.12502
lthumb -2.329 33.6845
rfemur -9.47753 5.85596 20.1078
rtibia 27.7997
rfoot -29.0411 -25.2695
rtoes -4.72232
lfemur -51.9718 4.25258 1.83185
ltibia 42.5555
lfoot 1.14193 29.4402
ltoes 31.5456
1749
root 1.25495 14.9132 -3.04467 18.8374 -41.2591 -7.08676
lowerback 0.849728 -0.553189 5.9208
upperback -5.59963 -0.645962 -1.92237
thorax -6.42973 -0.71261 -5.30216
lowerneck 0.979672 16.174 20.2154
upperneck 16.0696 26.542 -27.303
head 11.9468 12.2641 -9.54016
rclavicle 3.76697e-014 -7.95139e-016
rhumerus 7.27364 36.7937 -73.0146
rradius 127.798
rwrist -9.04066
rhand -28.5598 8.61692
rfingers 7.12502
rthumb -1.92653 -21.3541
lclavicle 3.76697e-014 -7.95139e-016
lhumerus -9.74312 1.93326 59.6224
lradius 142.192
lwrist -2.80695
lhand -28.8453 3.70114
lfingers 7.12502
lthumb -2.20226 33.6695
rfemur -9.38717 5.83918 20.233
rtibia 27.7484
rfoot -29.2267 -25.7789
rtoes -4.02068
lfemur -52.3863 5.12251 0.800136
ltibia 42.9701
lfoot 1.98066 28.7138
ltoes 30.4989
1750
root 1.24959 14.9156 -3.06211 18.8018 -40.8738 -6.97598
lowerback 0.708888 -0.414178 5.93622
upperback -5.66294 -0.463727 -1.87875
thorax -6.39031 -0.622028 -5.27685
lowerneck 0.808875 16.0344 19.9845
upperneck 16.3348 26.3351 -27.0832
head 11.9362 12.1438 -9.47127
rclavicle -3.26007e-014 -7.95139e-015
rhumerus 7.44148 36.7617 -72.8044
rradius 127.703
rwrist -9.23611
rhand -28.5903 8.62415
rfingers 7.12502
rthumb -1.95605 -21.3466
lclavicle -3.26007e-014 -7.95139e-015
lhumerus -9.8308 1.74282 59.785
lradius 142.081
lwrist -3.10018
lhand -28.6996 3.71323
lfingers 7.12502
lthumb -2.06155 33.683
rfemur -9.32988 5.77952 20.3498
rtibia 27.6778
rfoot -29.3987 -26.1692
rtoes -3.47774
lfemur -52.7946 5.87994 -0.089072
ltibia 43.3624
lfoot 2.58894 28.0589
ltoes 29.7025
1751
root 1.24423 14.9171 -3.07392 18.8302 -40.543 -6.91235
lowerback 0.527809 -0.243496 5.98728
upperback -5.74017 -0.240201 -1.83727
thorax -6.33784 -0.512902 -5.27587
lowerneck 0.622708 15.8923 19.7663
upperneck 16.6248 26.1279 -26.857
head 11.9403 12.0223 -9.40132
rclavicle 3.18055e-014 3.18055e-015
rhumerus 7.64276 36.7254 -72.6172
rradius 127.582
rwrist -9.37241
rhand -28.6114 8.64015
rfingers 7.12502
rthumb -1.97637 -21.3304
lclavicle 3.18055e-014 3.18055e-015
lhumerus -9.92527 1.58639 59.8849
lradius 142.005
lwrist -3.30081
lhand -28.5299 3.76826
lfingers 7.12502
lthumb -1.89771 33.7396
rfemur -9.29787 5.67964 20.458
rtibia 27.5832
rfoot -29.5378 -26.429
rtoes -3.14412
lfemur -53.1893 6.53739 -0.841988
ltibia 43.7261
lfoot 3.00689 27.4873
ltoes 29.1868
1752
root 1.23879 14.9172 -3.0803 18.9151 -40.2647 -6.90205
lowerback 0.321021 -0.0407044 6.07868
upperback -5.8258 0.0260112 -1.79851
thorax -6.27428 -0.384609 -5.30186
lowerneck 0.408237 15.7493 19.5586
upperneck 16.9406 25.9203 -26.6196
head 11.961 11.8986 -9.32694
rclavicle 1.43324e-013 5.56597e-015
rhumerus 7.87131 36.6792 -72.459
rradius 127.439
rwrist -9.44772
rhand -28.6381 8.68277
rfingers 7.12502
rthumb -2.00221 -21.2876
lclavicle 1.43324e-013 5.56597e-015
lhumerus -10.0705 1.41638 59.9649
lradius 141.996
lwrist -3.47861
lhand -28.3502 3.85469
lfingers 7.12502
lthumb -1.72412 33.8275
rfemur -9.27949 5.56189 20.5682
rtibia 27.4646
rfoot -29.6383 -26.5756
rtoes -3.0027
lfemur -53.5608 7.12259 -1.46763
ltibia 44.0614
lfoot 3.23309 27.0207
ltoes 28.9439
1753
root 1.23327 14.9158 -3.0815 19.0477 -40.0263 -6.94628
lowerback 0.0965905 0.198151 6.22261
upperback -5.91429 0.340272 -1.77365
thorax -6.19714 -0.235118 -5.37323
lowerneck 0.152744 15.599 19.3759
upperneck 17.2883 25.7005 -26.364
head 12.0005 11.7678 -9.24974
rclavicle 8.70677e-014 3.97569e-015
rhumerus 8.10355 36.5997 -72.3486
rradius 127.276
rwrist -9.45659
rhand -28.6847 8.76081
rfingers 7.12502
rthumb -2.04716 -21.2091
lclavicle 8.70677e-014 3.97569e-015
lhumerus -10.2276 1.22531 60.014
lradius 142.032
lwrist -3.61547
lhand -28.1561 3.90703
lfingers 7.12502
lthumb -1.53672 33.8812
rfemur -9.26037 5.44694 20.6912
rtibia 27.3236
rfoot -29.7064 -26.6531
rtoes -2.97764
lfemur -53.9109 7.66719 -1.99041
ltibia 44.3764
lfoot 3.26808 26.6725
ltoes 28.8552
1754
root 1.22755 14.9122 -3.07779 19.2203 -39.8127 -7.04722
lowerback -0.134923 0.458018 6.41971
upperback -6.01505 0.683542 -1.74627
thorax -6.12417 -0.0743394 -5.47137
lowerneck -0.0949116 15.443 19.1904
upperneck 17.6533 25.4736 -26.093
head 12.0413 11.6347 -9.16885
rclavicle -4.03036e-014 2.3059e-014
rhumerus 8.31863 36.5322 -72.2906
rradius 127.095
rwrist -9.41438
rhand -28.7473 8.86385
rfingers 7.12502
rthumb -2.10768 -21.1055
lclavicle -4.03036e-014 2.3059e-014
lhumerus -10.4509 1.04314 60.0359
lradius 142.119
lwrist -3.69966
lhand -27.9542 3.8585
lfingers 7.12502
lthumb -1.34167 33.834
rfemur -9.22508 5.34708 20.8398
rtibia 27.1621
rfoot -29.7529 -26.7178
rtoes -2.97697
lfemur -54.2437 8.1969 -2.4291
ltibia 44.683
lfoot 3.07992 26.4502
ltoes 28.8268
1755
root 1.22158 14.9063 -3.06957 19.4243 -39.6063 -7.2026
lowerback -0.368381 0.730257 6.66678
upperback -6.12243 1.04408 -1.71596
thorax -6.053 0.0923335 -5.59309
lowerneck -0.338864 15.2838 19.0117
upperneck 18.0279 25.2417 -25.8116
head 12.0845 11.501 -9.08621
rclavicle 2.72335e-014 -2.14687e-014
rhumerus 8.51327 36.4739 -72.2923
rradius 126.921
rwrist -9.37349
rhand -28.7709 8.93465
rfingers 7.12502
rthumb -2.13048 -21.0345
lclavicle 2.72335e-014 -2.14687e-014
lhumerus -10.7165 0.899205 60.006
lradius 142.24
lwrist -3.68949
lhand -27.7445 3.69369
lfingers 7.12502
lthumb -1.13918 33.6704
rfemur -9.15921 5.26669 21.0226
rtibia 26.9805
rfoot -29.7887 -26.8201
rtoes -2.92736
lfemur -54.5682 8.73003 -2.80539
ltibia 44.9949
lfoot 2.67801 26.3461
ltoes 28.7138
1756
root 1.21506 14.8979 -3.05711 19.6456 -39.3911 -7.39726
lowerback -0.601016 1.00084 6.94915
upperback -6.241 1.40277 -1.67711
thorax -5.99232 0.255752 -5.72321
lowerneck -0.55596 15.1243 18.8347
upperneck 18.4098 25.0108 -25.5184
head 12.1253 11.3709 -9.00085
rclavicle 8.82107e-014 -7.95139e-016
rhumerus 8.67804 36.4594 -72.3572
rradius 126.736
rwrist -9.30097
rhand -28.7903 8.99131
rfingers 7.12502
rthumb -2.14921 -20.9776
lclavicle 8.82107e-014 -7.95139e-016
lhumerus -11.0039 0.844737 59.8905
lradius 142.356
lwrist -3.52305
lhand -27.5307 3.33232
lfingers 7.12502
lthumb -0.932654 33.31
rfemur -9.05254 5.20188 21.2356
rtibia 26.7796
rfoot -29.8367 -26.978
rtoes -2.78595
lfemur -54.8924 9.27714 -3.14967
ltibia 45.321
lfoot 2.09427 26.3411
ltoes 28.3971
